<svg width="160" height="32" viewBox="0 0 160 32" fill="none" xmlns="http://www.w3.org/2000/svg">
<path d="M8.42191 24.8964C5.89875 24.8964 3.88703 24.1748 2.38678 22.7315C0.909248 21.2657 0.125022 19.2135 0.0340969 16.5751L0 15.7294L0.0340969 14.8837C0.147753 12.3129 0.943345 10.2946 2.42087 8.82875C3.92113 7.36293 5.92148 6.63002 8.42191 6.63002C11.1042 6.63002 13.1727 7.44186 14.6275 9.06554C16.1051 10.6892 16.8438 12.8541 16.8438 15.5603V16.2706C16.8438 16.4961 16.7643 16.6878 16.6051 16.8457C16.446 17.0035 16.2414 17.0825 15.9914 17.0825H4.67126V17.3531C4.71672 18.5934 5.05769 19.642 5.69416 20.4989C6.35337 21.3333 7.25125 21.7505 8.38781 21.7505C9.72895 21.7505 10.8087 21.2319 11.627 20.1945C11.8316 19.9464 11.9907 19.7886 12.1044 19.7209C12.2407 19.6533 12.434 19.6194 12.684 19.6194H15.6163C15.8209 19.6194 15.9914 19.6871 16.1278 19.8224C16.2869 19.9352 16.3665 20.0817 16.3665 20.2622C16.3665 20.8034 16.0369 21.4461 15.3777 22.1903C14.7412 22.9119 13.8206 23.5433 12.6158 24.0846C11.4111 24.6258 10.0131 24.8964 8.42191 24.8964ZM12.2067 14.241V14.1395C12.2067 12.809 11.8657 11.7378 11.1837 10.926C10.5245 10.1142 9.60393 9.70824 8.42191 9.70824C7.23989 9.70824 6.31927 10.1142 5.66007 10.926C5.00086 11.7378 4.67126 12.809 4.67126 14.1395V14.241H12.2067Z" fill="#F0EDF5"/>
<path d="M30.4391 24.5581C30.2118 24.5581 30.0186 24.4792 29.8595 24.3214C29.7003 24.1635 29.6208 23.9718 29.6208 23.7463V1.35306C29.6208 1.105 29.7003 0.913319 29.8595 0.778013C30.0186 0.620154 30.2118 0.541225 30.4391 0.541225H33.2691C33.5192 0.541225 33.7124 0.620154 33.8488 0.778013C34.0079 0.913319 34.0875 1.105 34.0875 1.35306V23.7463C34.0875 23.9718 34.0079 24.1635 33.8488 24.3214C33.7124 24.4792 33.5192 24.5581 33.2691 24.5581H30.4391Z" fill="#F0EDF5"/>
<path d="M46.248 24.8964C43.7249 24.8964 41.7132 24.1748 40.2129 22.7315C38.7354 21.2657 37.9511 19.2135 37.8602 16.5751L37.8261 15.7294L37.8602 14.8837C37.9739 12.3129 38.7695 10.2946 40.247 8.82875C41.7473 7.36293 43.7476 6.63002 46.248 6.63002C48.9303 6.63002 50.9989 7.44186 52.4537 9.06554C53.9312 10.6892 54.6699 12.8541 54.6699 15.5603V16.2706C54.6699 16.4961 54.5904 16.6878 54.4313 16.8457C54.2721 17.0035 54.0676 17.0825 53.8175 17.0825H42.4974V17.3531C42.5429 18.5934 42.8838 19.642 43.5203 20.4989C44.1795 21.3333 45.0774 21.7505 46.2139 21.7505C47.5551 21.7505 48.6348 21.2319 49.4531 20.1945C49.6577 19.9464 49.8168 19.7886 49.9305 19.7209C50.0669 19.6533 50.2601 19.6194 50.5101 19.6194H53.4425C53.647 19.6194 53.8175 19.6871 53.9539 19.8224C54.113 19.9352 54.1926 20.0817 54.1926 20.2622C54.1926 20.8034 53.863 21.4461 53.2038 22.1903C52.5673 22.9119 51.6467 23.5433 50.4419 24.0846C49.2372 24.6258 47.8392 24.8964 46.248 24.8964ZM50.0328 14.241V14.1395C50.0328 12.809 49.6918 11.7378 49.0099 10.926C48.3507 10.1142 47.4301 9.70824 46.248 9.70824C45.066 9.70824 44.1454 10.1142 43.4862 10.926C42.827 11.7378 42.4974 12.809 42.4974 14.1395V14.241H50.0328Z" fill="#F0EDF5"/>
<path d="M63.4379 24.8964C62.2786 24.8964 61.2102 24.6709 60.2328 24.2199C59.2781 23.7463 58.5166 23.1149 57.9483 22.3256C57.4027 21.5363 57.13 20.6681 57.13 19.7209C57.13 18.1875 57.7551 16.9471 59.0053 16C60.2555 15.0529 61.9717 14.4101 64.1539 14.0719L68.8252 13.3953V12.685C68.8252 11.6927 68.5751 10.9486 68.075 10.4524C67.575 9.95631 66.768 9.70824 65.6542 9.70824C64.904 9.70824 64.2903 9.85483 63.8129 10.148C63.3583 10.4186 62.9946 10.6892 62.7218 10.9598C62.4491 11.253 62.2672 11.4447 62.1763 11.5349C62.0854 11.8055 61.9149 11.9408 61.6648 11.9408H59.0394C58.8348 11.9408 58.653 11.8731 58.4938 11.7378C58.3575 11.6025 58.2893 11.4221 58.2893 11.1966C58.312 10.6328 58.5848 9.99013 59.1076 9.2685C59.6531 8.54686 60.4828 7.92671 61.5967 7.40803C62.7105 6.88936 64.0744 6.63002 65.6883 6.63002C68.3706 6.63002 70.3254 7.22762 71.5529 8.42283C72.7804 9.61804 73.3941 11.1853 73.3941 13.1247V23.7463C73.3941 23.9718 73.3146 24.1635 73.1555 24.3214C73.0191 24.4792 72.8259 24.5581 72.5758 24.5581H69.814C69.5867 24.5581 69.3935 24.4792 69.2343 24.3214C69.0752 24.1635 68.9957 23.9718 68.9957 23.7463V22.4271C68.4956 23.1487 67.7795 23.7463 66.8476 24.2199C65.9383 24.6709 64.8018 24.8964 63.4379 24.8964ZM64.5972 21.6829C65.8474 21.6829 66.8703 21.277 67.6659 20.4651C68.4615 19.6533 68.8593 18.4693 68.8593 16.9133V16.203L65.4496 16.7442C64.1312 16.9471 63.131 17.2741 62.4491 17.7252C61.7899 18.1762 61.4603 18.7287 61.4603 19.3827C61.4603 20.1043 61.7671 20.6681 62.3809 21.074C62.9946 21.4799 63.7334 21.6829 64.5972 21.6829Z" fill="#F0EDF5"/>
<path d="M78.5867 24.5581C78.3594 24.5581 78.1662 24.4792 78.0071 24.3214C77.8479 24.1635 77.7684 23.9718 77.7684 23.7463V7.81395C77.7684 7.58844 77.8479 7.39676 78.0071 7.2389C78.1662 7.05849 78.3594 6.96829 78.5867 6.96829H81.3485C81.5986 6.96829 81.8032 7.04721 81.9623 7.20507C82.1214 7.36293 82.201 7.56589 82.201 7.81395V9.20084C82.7465 8.47921 83.4285 7.92671 84.2468 7.54334C85.0878 7.15997 86.0425 6.96829 87.1109 6.96829H88.5089C88.7589 6.96829 88.9521 7.04721 89.0885 7.20507C89.2476 7.34038 89.3272 7.53206 89.3272 7.78013V10.2156C89.3272 10.4412 89.2476 10.6328 89.0885 10.7907C88.9521 10.9486 88.7589 11.0275 88.5089 11.0275H85.8493C84.781 11.0275 83.9399 11.3319 83.3262 11.9408C82.7124 12.5497 82.4055 13.3841 82.4055 14.444V23.7463C82.4055 23.9718 82.326 24.1635 82.1669 24.3214C82.0078 24.4792 81.8032 24.5581 81.5531 24.5581H78.5867Z" fill="#F0EDF5"/>
<path d="M92.8048 24.5581C92.5775 24.5581 92.3843 24.4792 92.2252 24.3214C92.066 24.1635 91.9865 23.9718 91.9865 23.7463V7.78013C91.9865 7.55461 92.066 7.36293 92.2252 7.20507C92.3843 7.04721 92.5775 6.96829 92.8048 6.96829H95.6007C95.8281 6.96829 96.0213 7.04721 96.1804 7.20507C96.3395 7.36293 96.4191 7.55461 96.4191 7.78013V9.16702C97.7602 7.47569 99.6583 6.63002 102.113 6.63002C104.204 6.63002 105.864 7.31783 107.091 8.69345C108.319 10.0465 108.933 11.8957 108.933 14.241V23.7463C108.933 23.9718 108.853 24.1635 108.694 24.3214C108.558 24.4792 108.364 24.5581 108.114 24.5581H105.114C104.886 24.5581 104.693 24.4792 104.534 24.3214C104.375 24.1635 104.295 23.9718 104.295 23.7463V14.444C104.295 13.1135 103.966 12.0874 103.307 11.3657C102.67 10.6216 101.738 10.2495 100.511 10.2495C99.3059 10.2495 98.3512 10.6216 97.6466 11.3657C96.9646 12.1099 96.6236 13.136 96.6236 14.444V23.7463C96.6236 23.9718 96.5441 24.1635 96.385 24.3214C96.2486 24.4792 96.0554 24.5581 95.8053 24.5581H92.8048Z" fill="#F0EDF5"/>
<path d="M113.946 4.0592C113.718 4.0592 113.525 3.98027 113.366 3.82241C113.207 3.66455 113.127 3.47287 113.127 3.24736V0.811839C113.127 0.586328 113.207 0.394644 113.366 0.236785C113.525 0.0789285 113.718 0 113.946 0H117.048C117.276 0 117.469 0.0789285 117.628 0.236785C117.81 0.394644 117.901 0.586328 117.901 0.811839V3.24736C117.901 3.47287 117.821 3.66455 117.662 3.82241C117.503 3.98027 117.298 4.0592 117.048 4.0592H113.946ZM114.082 24.5581C113.855 24.5581 113.661 24.4792 113.502 24.3214C113.343 24.1635 113.264 23.9718 113.264 23.7463V7.78013C113.264 7.55461 113.343 7.36293 113.502 7.20507C113.661 7.04721 113.855 6.96829 114.082 6.96829H116.912C117.162 6.96829 117.355 7.04721 117.492 7.20507C117.651 7.34038 117.73 7.53206 117.73 7.78013V23.7463C117.73 23.9718 117.651 24.1635 117.492 24.3214C117.355 24.4792 117.162 24.5581 116.912 24.5581H114.082Z" fill="#F0EDF5"/>
<path d="M123.072 24.5581C122.845 24.5581 122.652 24.4792 122.493 24.3214C122.334 24.1635 122.254 23.9718 122.254 23.7463V7.78013C122.254 7.55461 122.334 7.36293 122.493 7.20507C122.652 7.04721 122.845 6.96829 123.072 6.96829H125.868C126.096 6.96829 126.289 7.04721 126.448 7.20507C126.607 7.36293 126.687 7.55461 126.687 7.78013V9.16702C128.028 7.47569 129.926 6.63002 132.381 6.63002C134.472 6.63002 136.131 7.31783 137.359 8.69345C138.586 10.0465 139.2 11.8957 139.2 14.241V23.7463C139.2 23.9718 139.121 24.1635 138.961 24.3214C138.825 24.4792 138.632 24.5581 138.382 24.5581H135.381C135.154 24.5581 134.961 24.4792 134.802 24.3214C134.643 24.1635 134.563 23.9718 134.563 23.7463V14.444C134.563 13.1135 134.233 12.0874 133.574 11.3657C132.938 10.6216 132.006 10.2495 130.778 10.2495C129.574 10.2495 128.619 10.6216 127.914 11.3657C127.232 12.1099 126.891 13.136 126.891 14.444V23.7463C126.891 23.9718 126.812 24.1635 126.653 24.3214C126.516 24.4792 126.323 24.5581 126.073 24.5581H123.072Z" fill="#F0EDF5"/>
<path d="M151.544 32C149.521 32 147.884 31.6617 146.634 30.9852C145.384 30.3312 144.497 29.5758 143.975 28.7188C143.452 27.8619 143.19 27.129 143.19 26.5201C143.19 26.3171 143.27 26.1367 143.429 25.9789C143.611 25.821 143.804 25.7421 144.009 25.7421H146.975C147.18 25.7421 147.35 25.7872 147.486 25.8774C147.646 25.9901 147.771 26.1818 147.862 26.4524C148.089 27.0613 148.453 27.5687 148.953 27.9746C149.475 28.4031 150.282 28.6173 151.374 28.6173C152.737 28.6173 153.738 28.3129 154.374 27.704C155.033 27.0951 155.363 26.0465 155.363 24.5581V22.2579C154.113 23.7237 152.362 24.4567 150.112 24.4567C147.748 24.4567 145.963 23.735 144.759 22.2918C143.577 20.8485 142.94 18.9091 142.849 16.4736L142.815 15.5603L142.849 14.6469C142.94 12.2565 143.588 10.3284 144.793 8.86258C145.998 7.37421 147.771 6.63002 150.112 6.63002C151.317 6.63002 152.374 6.85553 153.283 7.30655C154.192 7.75757 154.954 8.37773 155.567 9.16702V7.81395C155.567 7.56589 155.647 7.36293 155.806 7.20507C155.965 7.04721 156.158 6.96829 156.386 6.96829H159.148C159.375 6.96829 159.568 7.05849 159.727 7.2389C159.886 7.39676 159.966 7.58844 159.966 7.81395L160 24.1184C160 26.6216 159.295 28.561 157.886 29.9366C156.477 31.3122 154.363 32 151.544 32ZM151.374 20.871C152.669 20.871 153.635 20.4651 154.272 19.6533C154.931 18.8414 155.295 17.8492 155.363 16.6765C155.386 16.4961 155.397 16.124 155.397 15.5603C155.397 15.019 155.386 14.6582 155.363 14.4778C155.295 13.2826 154.931 12.2791 154.272 11.4672C153.635 10.6554 152.669 10.2495 151.374 10.2495C148.919 10.2495 147.623 11.7491 147.486 14.7484L147.452 15.5603C147.452 17.1614 147.737 18.4468 148.305 19.4165C148.896 20.3862 149.919 20.871 151.374 20.871Z" fill="#F0EDF5"/>
<path d="M21.0769 24.5581C20.8496 24.5581 20.6563 24.4792 20.4972 24.3214C20.3381 24.1635 20.2585 23.9718 20.2585 23.7463V20.3975C20.2585 20.172 20.3381 19.9803 20.4972 19.8224C20.6563 19.642 20.8496 19.5518 21.0769 19.5518H24.4866C24.7139 19.5518 24.9071 19.642 25.0662 19.8224C25.2253 19.9803 25.3049 20.172 25.3049 20.3975V23.7463C25.3049 23.9718 25.2253 24.1635 25.0662 24.3214C24.9071 24.4792 24.7139 24.5581 24.4866 24.5581H21.0769Z" fill="#FF6680"/>
</svg>
