<svg width="14" height="20" viewBox="0 0 14 20" fill="none" xmlns="http://www.w3.org/2000/svg">
<path d="M3.66669 5.00008V3.33342C3.66669 2.89139 3.84228 2.46746 4.15484 2.1549C4.4674 1.84234 4.89133 1.66675 5.33335 1.66675H8.66669C9.10872 1.66675 9.53264 1.84234 9.8452 2.1549C10.1578 2.46746 10.3334 2.89139 10.3334 3.33342V5.00008M12.8334 5.00008V16.6668C12.8334 17.1088 12.6578 17.5327 12.3452 17.8453C12.0326 18.1578 11.6087 18.3334 11.1667 18.3334H2.83335C2.39133 18.3334 1.9674 18.1578 1.65484 17.8453C1.34228 17.5327 1.16669 17.1088 1.16669 16.6668V5.00008H12.8334Z" stroke="#C4C4D1" stroke-width="1.5" stroke-linecap="round" stroke-linejoin="round"/>
</svg>
